<mxfile host="app.diagrams.net" agent="Mozilla/5.0 (Windows NT 10.0; Win64; x64) AppleWebKit/537.36 (KHTML, like Gecko) Chrome/134.0.0.0 Safari/537.36 Edg/134.0.0.0" version="26.1.1">
  <diagram name="Page-1" id="X4RqQsJDIR7zH8DhYJAV">
    <mxGraphModel dx="872" dy="469" grid="1" gridSize="10" guides="1" tooltips="1" connect="1" arrows="1" fold="1" page="1" pageScale="1" pageWidth="850" pageHeight="1100" math="0" shadow="0">
      <root>
        <mxCell id="0" />
        <mxCell id="1" parent="0" />
        <mxCell id="484FyIkUnXDS8Jq0TAyO-3" value="" style="endArrow=classic;html=1;rounded=0;" edge="1" parent="1">
          <mxGeometry width="50" height="50" relative="1" as="geometry">
            <mxPoint x="425" y="110" as="sourcePoint" />
            <mxPoint x="426" y="150" as="targetPoint" />
          </mxGeometry>
        </mxCell>
        <mxCell id="484FyIkUnXDS8Jq0TAyO-6" value="Actor" style="shape=umlActor;verticalLabelPosition=bottom;verticalAlign=top;html=1;outlineConnect=0;" vertex="1" parent="1">
          <mxGeometry x="410" y="20" width="30" height="60" as="geometry" />
        </mxCell>
        <mxCell id="484FyIkUnXDS8Jq0TAyO-9" value="User Request Via Web&amp;nbsp; App" style="text;html=1;align=center;verticalAlign=middle;whiteSpace=wrap;rounded=0;" vertex="1" parent="1">
          <mxGeometry x="440" y="110" width="110" height="30" as="geometry" />
        </mxCell>
        <mxCell id="484FyIkUnXDS8Jq0TAyO-11" value="If past date&amp;nbsp;" style="rhombus;whiteSpace=wrap;html=1;" vertex="1" parent="1">
          <mxGeometry x="350" y="150" width="150" height="100" as="geometry" />
        </mxCell>
        <mxCell id="484FyIkUnXDS8Jq0TAyO-12" value="Yes" style="text;html=1;align=center;verticalAlign=middle;whiteSpace=wrap;rounded=0;" vertex="1" parent="1">
          <mxGeometry x="410" y="250" width="60" height="30" as="geometry" />
        </mxCell>
        <mxCell id="484FyIkUnXDS8Jq0TAyO-13" value="" style="endArrow=classic;html=1;rounded=0;exitX=0.5;exitY=1;exitDx=0;exitDy=0;entryX=0.5;entryY=0;entryDx=0;entryDy=0;" edge="1" parent="1" source="484FyIkUnXDS8Jq0TAyO-11" target="484FyIkUnXDS8Jq0TAyO-20">
          <mxGeometry width="50" height="50" relative="1" as="geometry">
            <mxPoint x="400" y="370" as="sourcePoint" />
            <mxPoint x="580" y="200" as="targetPoint" />
          </mxGeometry>
        </mxCell>
        <mxCell id="484FyIkUnXDS8Jq0TAyO-16" value="" style="endArrow=classic;html=1;rounded=0;exitX=0;exitY=0.5;exitDx=0;exitDy=0;" edge="1" parent="1" source="484FyIkUnXDS8Jq0TAyO-11" target="484FyIkUnXDS8Jq0TAyO-17">
          <mxGeometry width="50" height="50" relative="1" as="geometry">
            <mxPoint x="400" y="370" as="sourcePoint" />
            <mxPoint x="270" y="200" as="targetPoint" />
          </mxGeometry>
        </mxCell>
        <mxCell id="484FyIkUnXDS8Jq0TAyO-17" value="" style="rounded=0;whiteSpace=wrap;html=1;" vertex="1" parent="1">
          <mxGeometry x="182" y="170" width="120" height="60" as="geometry" />
        </mxCell>
        <mxCell id="484FyIkUnXDS8Jq0TAyO-18" value="show error message" style="text;html=1;align=center;verticalAlign=middle;whiteSpace=wrap;rounded=0;" vertex="1" parent="1">
          <mxGeometry x="187" y="176" width="110" height="44" as="geometry" />
        </mxCell>
        <mxCell id="484FyIkUnXDS8Jq0TAyO-19" value="No" style="text;html=1;align=center;verticalAlign=middle;whiteSpace=wrap;rounded=0;" vertex="1" parent="1">
          <mxGeometry x="310" y="176" width="60" height="30" as="geometry" />
        </mxCell>
        <mxCell id="484FyIkUnXDS8Jq0TAyO-20" value="" style="rhombus;whiteSpace=wrap;html=1;" vertex="1" parent="1">
          <mxGeometry x="340" y="290" width="170" height="90" as="geometry" />
        </mxCell>
        <mxCell id="484FyIkUnXDS8Jq0TAyO-21" value="If data is available for chosen date" style="text;html=1;align=center;verticalAlign=middle;whiteSpace=wrap;rounded=0;" vertex="1" parent="1">
          <mxGeometry x="370" y="320" width="110" height="30" as="geometry" />
        </mxCell>
        <mxCell id="484FyIkUnXDS8Jq0TAyO-22" value="" style="rounded=0;whiteSpace=wrap;html=1;" vertex="1" parent="1">
          <mxGeometry x="365" y="430" width="120" height="60" as="geometry" />
        </mxCell>
        <mxCell id="484FyIkUnXDS8Jq0TAyO-24" value="Show the output" style="text;html=1;align=center;verticalAlign=middle;whiteSpace=wrap;rounded=0;" vertex="1" parent="1">
          <mxGeometry x="370" y="440" width="100" height="40" as="geometry" />
        </mxCell>
        <mxCell id="484FyIkUnXDS8Jq0TAyO-25" value="" style="endArrow=classic;html=1;rounded=0;entryX=0.5;entryY=0;entryDx=0;entryDy=0;exitX=0.5;exitY=1;exitDx=0;exitDy=0;" edge="1" parent="1" source="484FyIkUnXDS8Jq0TAyO-20" target="484FyIkUnXDS8Jq0TAyO-22">
          <mxGeometry width="50" height="50" relative="1" as="geometry">
            <mxPoint x="400" y="390" as="sourcePoint" />
            <mxPoint x="450" y="340" as="targetPoint" />
          </mxGeometry>
        </mxCell>
        <mxCell id="484FyIkUnXDS8Jq0TAyO-26" value="Yes" style="text;html=1;align=center;verticalAlign=middle;whiteSpace=wrap;rounded=0;" vertex="1" parent="1">
          <mxGeometry x="420" y="390" width="60" height="30" as="geometry" />
        </mxCell>
        <mxCell id="484FyIkUnXDS8Jq0TAyO-27" value="No" style="text;html=1;align=center;verticalAlign=middle;whiteSpace=wrap;rounded=0;" vertex="1" parent="1">
          <mxGeometry x="270" y="300" width="60" height="30" as="geometry" />
        </mxCell>
        <mxCell id="484FyIkUnXDS8Jq0TAyO-28" value="" style="endArrow=classic;html=1;rounded=0;exitX=0;exitY=0.5;exitDx=0;exitDy=0;" edge="1" parent="1" source="484FyIkUnXDS8Jq0TAyO-20" target="484FyIkUnXDS8Jq0TAyO-29">
          <mxGeometry width="50" height="50" relative="1" as="geometry">
            <mxPoint x="400" y="390" as="sourcePoint" />
            <mxPoint x="260" y="335" as="targetPoint" />
          </mxGeometry>
        </mxCell>
        <mxCell id="484FyIkUnXDS8Jq0TAyO-29" value="" style="rounded=0;whiteSpace=wrap;html=1;" vertex="1" parent="1">
          <mxGeometry x="170" y="305" width="120" height="60" as="geometry" />
        </mxCell>
        <mxCell id="484FyIkUnXDS8Jq0TAyO-30" value="show error message" style="text;html=1;align=center;verticalAlign=middle;whiteSpace=wrap;rounded=0;" vertex="1" parent="1">
          <mxGeometry x="175" y="305" width="110" height="44" as="geometry" />
        </mxCell>
      </root>
    </mxGraphModel>
  </diagram>
</mxfile>
